<?xml version="1.0" encoding="utf-8" standalone="no"?>
<!DOCTYPE svg PUBLIC "-//W3C//DTD SVG 1.1//EN"
  "http://www.w3.org/Graphics/SVG/1.1/DTD/svg11.dtd">
<!-- Created with matplotlib (https://matplotlib.org/) -->
<svg height="248.518125pt" version="1.1" viewBox="0 0 372.103125 248.518125" width="372.103125pt" xmlns="http://www.w3.org/2000/svg" xmlns:xlink="http://www.w3.org/1999/xlink">
 <metadata>
  <rdf:RDF xmlns:cc="http://creativecommons.org/ns#" xmlns:dc="http://purl.org/dc/elements/1.1/" xmlns:rdf="http://www.w3.org/1999/02/22-rdf-syntax-ns#">
   <cc:Work>
    <dc:type rdf:resource="http://purl.org/dc/dcmitype/StillImage"/>
    <dc:date>2020-09-13T15:10:59.914241</dc:date>
    <dc:format>image/svg+xml</dc:format>
    <dc:creator>
     <cc:Agent>
      <dc:title>Matplotlib v3.3.1, https://matplotlib.org/</dc:title>
     </cc:Agent>
    </dc:creator>
   </cc:Work>
  </rdf:RDF>
 </metadata>
 <defs>
  <style type="text/css">*{stroke-linecap:butt;stroke-linejoin:round;}</style>
 </defs>
 <g id="figure_1">
  <g id="patch_1">
   <path d="M 0 248.518125 
L 372.103125 248.518125 
L 372.103125 0 
L 0 0 
z
" style="fill:none;"/>
  </g>
  <g id="axes_1">
   <g id="patch_2">
    <path d="M 30.103125 224.64 
L 364.903125 224.64 
L 364.903125 7.2 
L 30.103125 7.2 
z
" style="fill:#ffffff;"/>
   </g>
   <g id="matplotlib.axis_1">
    <g id="xtick_1">
     <g id="line2d_1">
      <defs>
       <path d="M 0 0 
L 0 3.5 
" id="mca6dd3dedc" style="stroke:#000000;stroke-width:0.8;"/>
      </defs>
      <g>
       <use style="stroke:#000000;stroke-width:0.8;" x="45.321307" xlink:href="#mca6dd3dedc" y="224.64"/>
      </g>
     </g>
     <g id="text_1">
      <!-- 0.00 -->
      <g transform="translate(34.188494 239.238437)scale(0.1 -0.1)">
       <defs>
        <path d="M 31.78125 66.40625 
Q 24.171875 66.40625 20.328125 58.90625 
Q 16.5 51.421875 16.5 36.375 
Q 16.5 21.390625 20.328125 13.890625 
Q 24.171875 6.390625 31.78125 6.390625 
Q 39.453125 6.390625 43.28125 13.890625 
Q 47.125 21.390625 47.125 36.375 
Q 47.125 51.421875 43.28125 58.90625 
Q 39.453125 66.40625 31.78125 66.40625 
z
M 31.78125 74.21875 
Q 44.046875 74.21875 50.515625 64.515625 
Q 56.984375 54.828125 56.984375 36.375 
Q 56.984375 17.96875 50.515625 8.265625 
Q 44.046875 -1.421875 31.78125 -1.421875 
Q 19.53125 -1.421875 13.0625 8.265625 
Q 6.59375 17.96875 6.59375 36.375 
Q 6.59375 54.828125 13.0625 64.515625 
Q 19.53125 74.21875 31.78125 74.21875 
z
" id="DejaVuSans-48"/>
        <path d="M 10.6875 12.40625 
L 21 12.40625 
L 21 0 
L 10.6875 0 
z
" id="DejaVuSans-46"/>
       </defs>
       <use xlink:href="#DejaVuSans-48"/>
       <use x="63.623047" xlink:href="#DejaVuSans-46"/>
       <use x="95.410156" xlink:href="#DejaVuSans-48"/>
       <use x="159.033203" xlink:href="#DejaVuSans-48"/>
      </g>
     </g>
    </g>
    <g id="xtick_2">
     <g id="line2d_2">
      <g>
       <use style="stroke:#000000;stroke-width:0.8;" x="83.557945" xlink:href="#mca6dd3dedc" y="224.64"/>
      </g>
     </g>
     <g id="text_2">
      <!-- 0.25 -->
      <g transform="translate(72.425132 239.238437)scale(0.1 -0.1)">
       <defs>
        <path d="M 19.1875 8.296875 
L 53.609375 8.296875 
L 53.609375 0 
L 7.328125 0 
L 7.328125 8.296875 
Q 12.9375 14.109375 22.625 23.890625 
Q 32.328125 33.6875 34.8125 36.53125 
Q 39.546875 41.84375 41.421875 45.53125 
Q 43.3125 49.21875 43.3125 52.78125 
Q 43.3125 58.59375 39.234375 62.25 
Q 35.15625 65.921875 28.609375 65.921875 
Q 23.96875 65.921875 18.8125 64.3125 
Q 13.671875 62.703125 7.8125 59.421875 
L 7.8125 69.390625 
Q 13.765625 71.78125 18.9375 73 
Q 24.125 74.21875 28.421875 74.21875 
Q 39.75 74.21875 46.484375 68.546875 
Q 53.21875 62.890625 53.21875 53.421875 
Q 53.21875 48.921875 51.53125 44.890625 
Q 49.859375 40.875 45.40625 35.40625 
Q 44.1875 33.984375 37.640625 27.21875 
Q 31.109375 20.453125 19.1875 8.296875 
z
" id="DejaVuSans-50"/>
        <path d="M 10.796875 72.90625 
L 49.515625 72.90625 
L 49.515625 64.59375 
L 19.828125 64.59375 
L 19.828125 46.734375 
Q 21.96875 47.46875 24.109375 47.828125 
Q 26.265625 48.1875 28.421875 48.1875 
Q 40.625 48.1875 47.75 41.5 
Q 54.890625 34.8125 54.890625 23.390625 
Q 54.890625 11.625 47.5625 5.09375 
Q 40.234375 -1.421875 26.90625 -1.421875 
Q 22.3125 -1.421875 17.546875 -0.640625 
Q 12.796875 0.140625 7.71875 1.703125 
L 7.71875 11.625 
Q 12.109375 9.234375 16.796875 8.0625 
Q 21.484375 6.890625 26.703125 6.890625 
Q 35.15625 6.890625 40.078125 11.328125 
Q 45.015625 15.765625 45.015625 23.390625 
Q 45.015625 31 40.078125 35.4375 
Q 35.15625 39.890625 26.703125 39.890625 
Q 22.75 39.890625 18.8125 39.015625 
Q 14.890625 38.140625 10.796875 36.28125 
z
" id="DejaVuSans-53"/>
       </defs>
       <use xlink:href="#DejaVuSans-48"/>
       <use x="63.623047" xlink:href="#DejaVuSans-46"/>
       <use x="95.410156" xlink:href="#DejaVuSans-50"/>
       <use x="159.033203" xlink:href="#DejaVuSans-53"/>
      </g>
     </g>
    </g>
    <g id="xtick_3">
     <g id="line2d_3">
      <g>
       <use style="stroke:#000000;stroke-width:0.8;" x="121.794582" xlink:href="#mca6dd3dedc" y="224.64"/>
      </g>
     </g>
     <g id="text_3">
      <!-- 0.50 -->
      <g transform="translate(110.66177 239.238437)scale(0.1 -0.1)">
       <use xlink:href="#DejaVuSans-48"/>
       <use x="63.623047" xlink:href="#DejaVuSans-46"/>
       <use x="95.410156" xlink:href="#DejaVuSans-53"/>
       <use x="159.033203" xlink:href="#DejaVuSans-48"/>
      </g>
     </g>
    </g>
    <g id="xtick_4">
     <g id="line2d_4">
      <g>
       <use style="stroke:#000000;stroke-width:0.8;" x="160.03122" xlink:href="#mca6dd3dedc" y="224.64"/>
      </g>
     </g>
     <g id="text_4">
      <!-- 0.75 -->
      <g transform="translate(148.898408 239.238437)scale(0.1 -0.1)">
       <defs>
        <path d="M 8.203125 72.90625 
L 55.078125 72.90625 
L 55.078125 68.703125 
L 28.609375 0 
L 18.3125 0 
L 43.21875 64.59375 
L 8.203125 64.59375 
z
" id="DejaVuSans-55"/>
       </defs>
       <use xlink:href="#DejaVuSans-48"/>
       <use x="63.623047" xlink:href="#DejaVuSans-46"/>
       <use x="95.410156" xlink:href="#DejaVuSans-55"/>
       <use x="159.033203" xlink:href="#DejaVuSans-53"/>
      </g>
     </g>
    </g>
    <g id="xtick_5">
     <g id="line2d_5">
      <g>
       <use style="stroke:#000000;stroke-width:0.8;" x="198.267858" xlink:href="#mca6dd3dedc" y="224.64"/>
      </g>
     </g>
     <g id="text_5">
      <!-- 1.00 -->
      <g transform="translate(187.135045 239.238437)scale(0.1 -0.1)">
       <defs>
        <path d="M 12.40625 8.296875 
L 28.515625 8.296875 
L 28.515625 63.921875 
L 10.984375 60.40625 
L 10.984375 69.390625 
L 28.421875 72.90625 
L 38.28125 72.90625 
L 38.28125 8.296875 
L 54.390625 8.296875 
L 54.390625 0 
L 12.40625 0 
z
" id="DejaVuSans-49"/>
       </defs>
       <use xlink:href="#DejaVuSans-49"/>
       <use x="63.623047" xlink:href="#DejaVuSans-46"/>
       <use x="95.410156" xlink:href="#DejaVuSans-48"/>
       <use x="159.033203" xlink:href="#DejaVuSans-48"/>
      </g>
     </g>
    </g>
    <g id="xtick_6">
     <g id="line2d_6">
      <g>
       <use style="stroke:#000000;stroke-width:0.8;" x="236.504495" xlink:href="#mca6dd3dedc" y="224.64"/>
      </g>
     </g>
     <g id="text_6">
      <!-- 1.25 -->
      <g transform="translate(225.371683 239.238437)scale(0.1 -0.1)">
       <use xlink:href="#DejaVuSans-49"/>
       <use x="63.623047" xlink:href="#DejaVuSans-46"/>
       <use x="95.410156" xlink:href="#DejaVuSans-50"/>
       <use x="159.033203" xlink:href="#DejaVuSans-53"/>
      </g>
     </g>
    </g>
    <g id="xtick_7">
     <g id="line2d_7">
      <g>
       <use style="stroke:#000000;stroke-width:0.8;" x="274.741133" xlink:href="#mca6dd3dedc" y="224.64"/>
      </g>
     </g>
     <g id="text_7">
      <!-- 1.50 -->
      <g transform="translate(263.608321 239.238437)scale(0.1 -0.1)">
       <use xlink:href="#DejaVuSans-49"/>
       <use x="63.623047" xlink:href="#DejaVuSans-46"/>
       <use x="95.410156" xlink:href="#DejaVuSans-53"/>
       <use x="159.033203" xlink:href="#DejaVuSans-48"/>
      </g>
     </g>
    </g>
    <g id="xtick_8">
     <g id="line2d_8">
      <g>
       <use style="stroke:#000000;stroke-width:0.8;" x="312.977771" xlink:href="#mca6dd3dedc" y="224.64"/>
      </g>
     </g>
     <g id="text_8">
      <!-- 1.75 -->
      <g transform="translate(301.844958 239.238437)scale(0.1 -0.1)">
       <use xlink:href="#DejaVuSans-49"/>
       <use x="63.623047" xlink:href="#DejaVuSans-46"/>
       <use x="95.410156" xlink:href="#DejaVuSans-55"/>
       <use x="159.033203" xlink:href="#DejaVuSans-53"/>
      </g>
     </g>
    </g>
    <g id="xtick_9">
     <g id="line2d_9">
      <g>
       <use style="stroke:#000000;stroke-width:0.8;" x="351.214409" xlink:href="#mca6dd3dedc" y="224.64"/>
      </g>
     </g>
     <g id="text_9">
      <!-- 2.00 -->
      <g transform="translate(340.081596 239.238437)scale(0.1 -0.1)">
       <use xlink:href="#DejaVuSans-50"/>
       <use x="63.623047" xlink:href="#DejaVuSans-46"/>
       <use x="95.410156" xlink:href="#DejaVuSans-48"/>
       <use x="159.033203" xlink:href="#DejaVuSans-48"/>
      </g>
     </g>
    </g>
   </g>
   <g id="matplotlib.axis_2">
    <g id="ytick_1">
     <g id="line2d_10">
      <defs>
       <path d="M 0 0 
L -3.5 0 
" id="mc804182416" style="stroke:#000000;stroke-width:0.8;"/>
      </defs>
      <g>
       <use style="stroke:#000000;stroke-width:0.8;" x="30.103125" xlink:href="#mc804182416" y="208.191543"/>
      </g>
     </g>
     <g id="text_10">
      <!-- 0.0 -->
      <g transform="translate(7.2 211.990761)scale(0.1 -0.1)">
       <use xlink:href="#DejaVuSans-48"/>
       <use x="63.623047" xlink:href="#DejaVuSans-46"/>
       <use x="95.410156" xlink:href="#DejaVuSans-48"/>
      </g>
     </g>
    </g>
    <g id="ytick_2">
     <g id="line2d_11">
      <g>
       <use style="stroke:#000000;stroke-width:0.8;" x="30.103125" xlink:href="#mc804182416" y="162.055771"/>
      </g>
     </g>
     <g id="text_11">
      <!-- 0.5 -->
      <g transform="translate(7.2 165.85499)scale(0.1 -0.1)">
       <use xlink:href="#DejaVuSans-48"/>
       <use x="63.623047" xlink:href="#DejaVuSans-46"/>
       <use x="95.410156" xlink:href="#DejaVuSans-53"/>
      </g>
     </g>
    </g>
    <g id="ytick_3">
     <g id="line2d_12">
      <g>
       <use style="stroke:#000000;stroke-width:0.8;" x="30.103125" xlink:href="#mc804182416" y="115.92"/>
      </g>
     </g>
     <g id="text_12">
      <!-- 1.0 -->
      <g transform="translate(7.2 119.719219)scale(0.1 -0.1)">
       <use xlink:href="#DejaVuSans-49"/>
       <use x="63.623047" xlink:href="#DejaVuSans-46"/>
       <use x="95.410156" xlink:href="#DejaVuSans-48"/>
      </g>
     </g>
    </g>
    <g id="ytick_4">
     <g id="line2d_13">
      <g>
       <use style="stroke:#000000;stroke-width:0.8;" x="30.103125" xlink:href="#mc804182416" y="69.784229"/>
      </g>
     </g>
     <g id="text_13">
      <!-- 1.5 -->
      <g transform="translate(7.2 73.583447)scale(0.1 -0.1)">
       <use xlink:href="#DejaVuSans-49"/>
       <use x="63.623047" xlink:href="#DejaVuSans-46"/>
       <use x="95.410156" xlink:href="#DejaVuSans-53"/>
      </g>
     </g>
    </g>
    <g id="ytick_5">
     <g id="line2d_14">
      <g>
       <use style="stroke:#000000;stroke-width:0.8;" x="30.103125" xlink:href="#mc804182416" y="23.648457"/>
      </g>
     </g>
     <g id="text_14">
      <!-- 2.0 -->
      <g transform="translate(7.2 27.447676)scale(0.1 -0.1)">
       <use xlink:href="#DejaVuSans-50"/>
       <use x="63.623047" xlink:href="#DejaVuSans-46"/>
       <use x="95.410156" xlink:href="#DejaVuSans-48"/>
      </g>
     </g>
    </g>
   </g>
   <g id="line2d_15">
    <path clip-path="url(#pbe0287a3e7)" d="M 45.321307 115.92 
L 46.850772 81.291645 
L 48.380238 54.031641 
L 49.909703 39.06199 
L 51.439169 37.323292 
L 52.968634 45.715638 
L 54.4981 58.519183 
L 56.027565 69.736908 
L 57.557031 75.454805 
L 59.086496 75.313599 
L 60.615962 72.531318 
L 62.145427 72.475308 
L 63.674893 80.341612 
L 65.204358 98.845117 
L 66.733824 126.823181 
L 68.263289 159.308682 
L 69.792755 189.067912 
L 71.32222 209.038466 
L 72.851686 214.756364 
L 74.381151 205.862328 
L 75.910617 186.124362 
L 77.440083 161.975197 
L 78.969548 140.124738 
L 80.499014 125.155088 
L 82.028479 118.006844 
L 85.08741 113.833156 
L 86.616876 106.684912 
L 88.146341 91.715262 
L 89.675807 69.864803 
L 91.205272 45.715638 
L 92.734738 25.977672 
L 94.264203 17.083636 
L 95.793669 22.801534 
L 97.323134 42.772088 
L 98.8526 72.531318 
L 100.382065 105.016819 
L 101.911531 132.994883 
L 103.440996 151.498388 
L 104.970462 159.364692 
L 106.499927 159.308682 
L 108.029393 156.526401 
L 109.558858 156.385195 
L 111.088324 162.103092 
L 112.617789 173.320817 
L 114.147255 186.124362 
L 115.67672 194.516708 
L 117.206186 192.77801 
L 118.735651 177.808359 
L 120.265117 150.548355 
L 123.324048 81.291645 
L 124.853513 54.031641 
L 126.382979 39.06199 
L 127.912444 37.323292 
L 129.44191 45.715638 
L 130.971375 58.519183 
L 132.500841 69.736908 
L 134.030306 75.454805 
L 135.559772 75.313599 
L 137.089237 72.531318 
L 138.618703 72.475308 
L 140.148168 80.341612 
L 141.677634 98.845117 
L 143.207099 126.823181 
L 144.736565 159.308682 
L 146.26603 189.067912 
L 147.795496 209.038466 
L 149.324961 214.756364 
L 150.854427 205.862328 
L 152.383892 186.124362 
L 153.913358 161.975197 
L 155.442823 140.124738 
L 156.972289 125.155088 
L 158.501755 118.006844 
L 161.560686 113.833156 
L 163.090151 106.684912 
L 164.619617 91.715262 
L 166.149082 69.864803 
L 167.678548 45.715638 
L 169.208013 25.977672 
L 170.737479 17.083636 
L 172.266944 22.801534 
L 173.79641 42.772088 
L 175.325875 72.531318 
L 176.855341 105.016819 
L 178.384806 132.994883 
L 179.914272 151.498388 
L 181.443737 159.364692 
L 182.973203 159.308682 
L 184.502668 156.526401 
L 186.032134 156.385195 
L 187.561599 162.103092 
L 189.091065 173.320817 
L 190.62053 186.124362 
L 192.149996 194.516708 
L 193.679461 192.77801 
L 195.208927 177.808359 
L 196.738392 150.548355 
L 199.797323 81.291645 
L 201.326789 54.031641 
L 202.856254 39.06199 
L 204.38572 37.323292 
L 205.915185 45.715638 
L 207.444651 58.519183 
L 208.974116 69.736908 
L 210.503582 75.454805 
L 212.033047 75.313599 
L 213.562513 72.531318 
L 215.091978 72.475308 
L 216.621444 80.341612 
L 218.150909 98.845117 
L 219.680375 126.823181 
L 221.20984 159.308682 
L 222.739306 189.067912 
L 224.268771 209.038466 
L 225.798237 214.756364 
L 227.327702 205.862328 
L 228.857168 186.124362 
L 230.386633 161.975197 
L 231.916099 140.124738 
L 233.445564 125.155088 
L 234.97503 118.006844 
L 238.033961 113.833156 
L 239.563427 106.684912 
L 241.092892 91.715262 
L 242.622358 69.864803 
L 244.151823 45.715638 
L 245.681289 25.977672 
L 247.210754 17.083636 
L 248.74022 22.801534 
L 250.269685 42.772088 
L 251.799151 72.531318 
L 253.328616 105.016819 
L 254.858082 132.994883 
L 256.387547 151.498388 
L 257.917013 159.364692 
L 259.446478 159.308682 
L 260.975944 156.526401 
L 262.505409 156.385195 
L 264.034875 162.103092 
L 265.56434 173.320817 
L 267.093806 186.124362 
L 268.623271 194.516708 
L 270.152737 192.77801 
L 271.682202 177.808359 
L 273.211668 150.548355 
L 276.270599 81.291645 
L 277.800064 54.031641 
L 279.32953 39.06199 
L 280.858995 37.323292 
L 282.388461 45.715638 
L 283.917926 58.519183 
L 285.447392 69.736908 
L 286.976857 75.454805 
L 288.506323 75.313599 
L 290.035788 72.531318 
L 291.565254 72.475308 
L 293.094719 80.341612 
L 294.624185 98.845117 
L 296.15365 126.823181 
L 297.683116 159.308682 
L 299.212581 189.067912 
L 300.742047 209.038466 
L 302.271512 214.756364 
L 303.800978 205.862328 
L 305.330443 186.124362 
L 306.859909 161.975197 
L 308.389374 140.124738 
L 309.91884 125.155088 
L 311.448305 118.006844 
L 314.507236 113.833156 
L 316.036702 106.684912 
L 317.566167 91.715262 
L 319.095633 69.864803 
L 320.625099 45.715638 
L 322.154564 25.977672 
L 323.68403 17.083636 
L 325.213495 22.801534 
L 326.742961 42.772088 
L 328.272426 72.531318 
L 329.801892 105.016819 
L 331.331357 132.994883 
L 332.860823 151.498388 
L 334.390288 159.364692 
L 335.919754 159.308682 
L 337.449219 156.526401 
L 338.978685 156.385195 
L 340.50815 162.103092 
L 342.037616 173.320817 
L 343.567081 186.124362 
L 345.096547 194.516708 
L 346.626012 192.77801 
L 348.155478 177.808359 
L 349.684943 150.548355 
L 349.684943 150.548355 
" style="fill:none;stroke:#1f77b4;stroke-linecap:square;stroke-width:1.5;"/>
   </g>
   <g id="patch_3">
    <path d="M 30.103125 224.64 
L 30.103125 7.2 
" style="fill:none;stroke:#000000;stroke-linecap:square;stroke-linejoin:miter;stroke-width:0.8;"/>
   </g>
   <g id="patch_4">
    <path d="M 364.903125 224.64 
L 364.903125 7.2 
" style="fill:none;stroke:#000000;stroke-linecap:square;stroke-linejoin:miter;stroke-width:0.8;"/>
   </g>
   <g id="patch_5">
    <path d="M 30.103125 224.64 
L 364.903125 224.64 
" style="fill:none;stroke:#000000;stroke-linecap:square;stroke-linejoin:miter;stroke-width:0.8;"/>
   </g>
   <g id="patch_6">
    <path d="M 30.103125 7.2 
L 364.903125 7.2 
" style="fill:none;stroke:#000000;stroke-linecap:square;stroke-linejoin:miter;stroke-width:0.8;"/>
   </g>
  </g>
 </g>
 <defs>
  <clipPath id="pbe0287a3e7">
   <rect height="217.44" width="334.8" x="30.103125" y="7.2"/>
  </clipPath>
 </defs>
</svg>
